<svg xmlns="http://www.w3.org/2000/svg" xmlns:xlink="http://www.w3.org/1999/xlink" width="930" height="360" viewBox="0 0 930 360"><defs><style>.a{clip-path:url(#b);}.b{fill:#e57116;}.c{fill:#039a10;}.d{fill:none;}</style><clipPath id="b"><rect width="930" height="360"/></clipPath></defs><g id="a" class="a"><path class="b" d="M-2328,1606V1306h90v1.5a74.38,74.38,0,0,1,23.817,9.314,75.164,75.164,0,0,1,19.02,16.436,74.719,74.719,0,0,1,12.6,21.936A74.764,74.764,0,0,1-2178,1381a74.766,74.766,0,0,1-4.561,25.815,74.721,74.721,0,0,1-12.6,21.936,75.163,75.163,0,0,1-19.02,16.436A74.375,74.375,0,0,1-2238,1454.5v1.5h-60v150h-30Zm30-287v120h.01a129.045,129.045,0,0,0,35.022-4.714,100.617,100.617,0,0,0,28.606-12.858,65.381,65.381,0,0,0,19.288-19.072A43.134,43.134,0,0,0-2208,1379a43.127,43.127,0,0,0-7.072-23.354,65.374,65.374,0,0,0-19.288-19.072,100.619,100.619,0,0,0-28.606-12.858A129.048,129.048,0,0,0-2298,1319Z" transform="translate(2358 -1274.958)"/><path class="b" d="M-2328,1606V1306h90v1.5a74.38,74.38,0,0,1,23.817,9.314,75.164,75.164,0,0,1,19.02,16.436,74.719,74.719,0,0,1,12.6,21.936A74.764,74.764,0,0,1-2178,1381a74.766,74.766,0,0,1-4.561,25.815,74.721,74.721,0,0,1-12.6,21.936,75.163,75.163,0,0,1-19.02,16.436A74.375,74.375,0,0,1-2238,1454.5v1.5h-60v150h-30Zm30-287v120h.01a129.045,129.045,0,0,0,35.022-4.714,100.617,100.617,0,0,0,28.606-12.858,65.381,65.381,0,0,0,19.288-19.072A43.134,43.134,0,0,0-2208,1379a43.127,43.127,0,0,0-7.072-23.354,65.374,65.374,0,0,0-19.288-19.072,100.619,100.619,0,0,0-28.606-12.858A129.048,129.048,0,0,0-2298,1319Z" transform="translate(2538 -1274.958)"/><rect class="b" width="30" height="160" transform="matrix(0.951, -0.309, 0.309, 0.951, 282.026, 178.874)"/><path class="c" d="M-2253,1606a39.774,39.774,0,0,1-15.115-3.047,53.146,53.146,0,0,1-14.078-8.74,81.812,81.812,0,0,1-12.74-13.83,124.319,124.319,0,0,1-11.1-18.316,175.277,175.277,0,0,1-9.158-22.2,226.19,226.19,0,0,1-6.915-25.48A282.877,282.877,0,0,1-2328,1456a282.883,282.883,0,0,1,5.894-58.387,226.227,226.227,0,0,1,6.915-25.48,175.259,175.259,0,0,1,9.158-22.2,124.322,124.322,0,0,1,11.1-18.316,81.821,81.821,0,0,1,12.74-13.83,53.146,53.146,0,0,1,14.078-8.74A39.774,39.774,0,0,1-2253,1306a39.773,39.773,0,0,1,15.115,3.047,53.152,53.152,0,0,1,14.078,8.74,81.84,81.84,0,0,1,12.74,13.83,124.339,124.339,0,0,1,11.1,18.316,175.288,175.288,0,0,1,9.158,22.2,226.227,226.227,0,0,1,6.915,25.48A282.868,282.868,0,0,1-2178,1456a282.861,282.861,0,0,1-5.894,58.386,226.19,226.19,0,0,1-6.915,25.48,175.277,175.277,0,0,1-9.158,22.2,124.346,124.346,0,0,1-11.1,18.316,81.83,81.83,0,0,1-12.74,13.83,53.145,53.145,0,0,1-14.078,8.74A39.772,39.772,0,0,1-2253,1606Zm0-287c-6.075,0-11.968,3.569-17.516,10.609-5.359,6.8-10.171,16.534-14.3,28.932-8.5,25.5-13.18,59.4-13.18,95.46s4.681,69.961,13.18,95.459c4.132,12.4,8.945,22.132,14.3,28.932,5.548,7.04,11.441,10.609,17.516,10.609s11.968-3.569,17.516-10.609c5.359-6.8,10.171-16.534,14.3-28.932,8.5-25.5,13.18-59.4,13.18-95.459s-4.681-69.961-13.18-95.46c-4.132-12.4-8.945-22.132-14.3-28.932C-2241.031,1322.57-2246.925,1319-2253,1319Z" transform="translate(2718 -1274.958)"/><rect class="b" width="30" height="300" transform="translate(570 31.043)"/><rect class="b" width="30" height="300" transform="translate(690 31.043)"/><path class="b" d="M-2253,1462.043l-75-150h33.674L-2253,1380l41.325-67.957H-2178l-75,150Z" transform="translate(2898 -1281)"/><path class="d" d="M34.5,0,69,74H0Z" transform="translate(683.271 98.519) rotate(-180)"/><rect class="b" width="30" height="180" transform="translate(750 151.043)"/><rect class="b" width="30" height="180" transform="translate(870 151.043)"/><path class="b" d="M-2178,1456h-150V1306h150v150Zm-120-120v90h90v-90Z" transform="translate(3078 -1274.958)"/></g></svg>