<svg xmlns="http://www.w3.org/2000/svg" xmlns:xlink="http://www.w3.org/1999/xlink" width="200" height="71" viewBox="0 0 200 71"><defs><style>.a{clip-path:url(#a);}.b{fill:#f5a57a;}.c{fill:#0077b8;}.d{fill:none;}</style><clipPath id="a"><rect width="200" height="71"/></clipPath></defs><g class="a"><path class="b" d="M-2328,1365.167V1306h19.378v.3a16.913,16.913,0,0,1,5.128,1.837,15.873,15.873,0,0,1,4.1,3.242,14.476,14.476,0,0,1,2.713,4.326,13.64,13.64,0,0,1,.983,5.091,13.646,13.646,0,0,1-.982,5.091,14.477,14.477,0,0,1-2.713,4.326,15.873,15.873,0,0,1-4.1,3.241,16.912,16.912,0,0,1-5.129,1.837v.3h-12.919v29.583Zm6.459-56.6v23.667h0a30.181,30.181,0,0,0,7.541-.93,22.681,22.681,0,0,0,6.159-2.536,13.568,13.568,0,0,0,4.153-3.761,8,8,0,0,0,1.523-4.606,8.006,8.006,0,0,0-1.523-4.606,13.568,13.568,0,0,0-4.153-3.761,22.685,22.685,0,0,0-6.159-2.536A30.181,30.181,0,0,0-2321.541,1308.564Z" transform="translate(2334.459 -1299.878)"/><path class="b" d="M-2328,1365.167V1306h19.378v.3a16.913,16.913,0,0,1,5.128,1.837,15.873,15.873,0,0,1,4.1,3.242,14.476,14.476,0,0,1,2.713,4.326,13.64,13.64,0,0,1,.983,5.091,13.646,13.646,0,0,1-.982,5.091,14.477,14.477,0,0,1-2.713,4.326,15.873,15.873,0,0,1-4.1,3.241,16.912,16.912,0,0,1-5.129,1.837v.3h-12.919v29.583Zm6.459-56.6v23.667h0a30.181,30.181,0,0,0,7.541-.93,22.681,22.681,0,0,0,6.159-2.536,13.568,13.568,0,0,0,4.153-3.761,8,8,0,0,0,1.523-4.606,8.006,8.006,0,0,0-1.523-4.606,13.568,13.568,0,0,0-4.153-3.761,22.685,22.685,0,0,0-6.159-2.536A30.181,30.181,0,0,0-2321.541,1308.564Z" transform="translate(2373.216 -1299.878)"/><path class="b" d="M0,0,6.408.16l.851,31.832-6.408-.16Z" transform="translate(60.724 35.278) rotate(-18)"/><path class="c" d="M-2311.853,1365.167a9.25,9.25,0,0,1-3.254-.6,11.659,11.659,0,0,1-3.031-1.724,16.766,16.766,0,0,1-2.743-2.728,24.211,24.211,0,0,1-2.39-3.612,33.007,33.007,0,0,1-1.972-4.378,41.635,41.635,0,0,1-1.489-5.025,51.268,51.268,0,0,1-1.269-11.515,51.282,51.282,0,0,1,1.269-11.515,41.681,41.681,0,0,1,1.489-5.025,33.007,33.007,0,0,1,1.972-4.378,24.2,24.2,0,0,1,2.39-3.612,16.766,16.766,0,0,1,2.743-2.728,11.655,11.655,0,0,1,3.031-1.724,9.244,9.244,0,0,1,3.254-.6,9.248,9.248,0,0,1,3.254.6,11.663,11.663,0,0,1,3.031,1.724,16.784,16.784,0,0,1,2.743,2.728,24.227,24.227,0,0,1,2.39,3.612,33.038,33.038,0,0,1,1.972,4.378,41.729,41.729,0,0,1,1.489,5.025,51.283,51.283,0,0,1,1.269,11.515,51.28,51.28,0,0,1-1.269,11.515,41.68,41.68,0,0,1-1.489,5.025,33.007,33.007,0,0,1-1.972,4.378,24.249,24.249,0,0,1-2.39,3.612,16.791,16.791,0,0,1-2.743,2.728,11.659,11.659,0,0,1-3.031,1.724A9.246,9.246,0,0,1-2311.853,1365.167Zm0-56.6a5.079,5.079,0,0,0-3.771,2.092,18.475,18.475,0,0,0-3.079,5.706,57.115,57.115,0,0,0-2.838,18.827,57.119,57.119,0,0,0,2.838,18.827,18.5,18.5,0,0,0,3.079,5.706,5.079,5.079,0,0,0,3.771,2.092,5.079,5.079,0,0,0,3.771-2.092,18.468,18.468,0,0,0,3.079-5.706,57.107,57.107,0,0,0,2.838-18.827,57.115,57.115,0,0,0-2.838-18.827,18.5,18.5,0,0,0-3.079-5.706A5.082,5.082,0,0,0-2311.853,1308.564Z" transform="translate(2411.973 -1299.878)"/><rect class="b" width="6.459" height="59.167" transform="translate(122.729 6.122)"/><rect class="b" width="6.459" height="59.167" transform="translate(148.566 6.122)"/><path class="b" d="M-2311.852,1341.623-2328,1312.04h7.25l8.9,13.4,8.9-13.4h7.251l-16.149,29.583Z" transform="translate(2450.729 -1305.918)"/><path class="d" d="M7.428,0l7.428,14.594H0Z" transform="translate(147.118 19.43) rotate(180)"/><rect class="b" width="6.459" height="35.5" transform="translate(161.485 29.789)"/><rect class="b" width="6.459" height="35.5" transform="translate(187.323 29.789)"/><path class="b" d="M-2295.7,1335.583H-2328V1306h32.3Zm-25.838-23.667v17.75h19.378v-17.75Z" transform="translate(2489.485 -1299.878)"/></g></svg>